# xmcd
#
# Track frame offsets: 
#        150
#        12884
#        24741
#        39880
#        54096
#        71423
#        90363
#
# Disc length: 1393 seconds
#
# Revision: 0
# Processed by: cddbd v1.5.2PL0 Copyright (c) Steve Scherf et al.
# Submitted via: ExactAudioCopy v1.0b1
#
DISCID=43056f07
DTITLE=Cale Tyson - High On Lonesome
DYEAR=2013
DGENRE=Country
TTITLE0=Honky Tonk Moan
TTITLE1=Is The Flame Burning Low?
TTITLE2=Lonesome In Tennessee
TTITLE3=Not Missin' You
TTITLE4=Long Gone Girl
TTITLE5=Old Time Blues
TTITLE6=Thorn In My Side
EXTD=
EXTT0=
EXTT1=
EXTT2=
EXTT3=
EXTT4=
EXTT5=
EXTT6=
PLAYORDER=
